# xmcd CD database file
#
# Track frame offsets:
#	150
#	58108
#	96778
#	145957
#	214048
#	264869
#	302320
#
# Disc length: 4484 seconds
#
# Revision: 0
# Processed by: cddbd v1.5.1PL0 Copyright (c) Steve Scherf et al.
# Submitted via: CDex 1.51
#
DISCID=59118207
DTITLE=Joey DeFrancesco  - Meets Jimmy Smith
DYEAR=2005
DGENRE=Jazz
TTITLE0=Joey DeFrancesco Trio - The Champ
TTITLE1=Joey DeFrancesco Trio - The Good Life
TTITLE2=Joey DeFrancesco Trio - Back Home Again In Indiana
TTITLE3=Joey DeFrancesco and Jimmy Smith - The Reverend - Yesterdays - My Romance
TTITLE4=Joey DeFrancesco and Jimmy Smith - The Skeezer - St.Thomas
TTITLE5=Joey DeFrancesco and Jimmy Smith - Legacy
TTITLE6=Joey DeFrancesco and Jimmy Smith - I'll Close My Eyes
EXTD=YEAR: 2005
EXTT0=
EXTT1=
EXTT2=
EXTT3=
EXTT4=
EXTT5=
EXTT6=
PLAYORDER=
